<?xml version="1.0" encoding="UTF-8"?>
<svg xmlns="http://www.w3.org/2000/svg" version="1.1" width="500" height="500" viewBox="0 0 500 500"><rect x="0" y="0" width="500" height="500" fill="#ffffff"/><g transform="scale(20)"><g transform="translate(0,0)"><path fill-rule="evenodd" d="M11 0L11 1L10 1L10 2L9 2L9 1L8 1L8 2L9 2L9 3L8 3L8 4L9 4L9 5L8 5L8 7L9 7L9 8L6 8L6 9L5 9L5 8L0 8L0 12L1 12L1 11L2 11L2 13L0 13L0 17L1 17L1 14L4 14L4 15L2 15L2 17L3 17L3 16L5 16L5 17L8 17L8 19L9 19L9 20L8 20L8 25L9 25L9 21L11 21L11 22L12 22L12 23L14 23L14 24L11 24L11 25L16 25L16 24L17 24L17 23L18 23L18 25L25 25L25 22L24 22L24 24L22 24L22 23L23 23L23 20L22 20L22 19L24 19L24 21L25 21L25 18L23 18L23 16L22 16L22 13L23 13L23 15L24 15L24 16L25 16L25 14L24 14L24 13L25 13L25 10L24 10L24 8L23 8L23 11L24 11L24 12L22 12L22 13L21 13L21 12L18 12L18 11L19 11L19 10L18 10L18 8L16 8L16 7L17 7L17 5L15 5L15 4L14 4L14 3L13 3L13 2L11 2L11 1L15 1L15 2L16 2L16 1L15 1L15 0ZM9 3L9 4L12 4L12 5L9 5L9 7L10 7L10 8L9 8L9 9L8 9L8 10L7 10L7 9L6 9L6 10L5 10L5 9L4 9L4 10L3 10L3 9L1 9L1 10L2 10L2 11L3 11L3 13L5 13L5 12L7 12L7 13L6 13L6 14L7 14L7 13L8 13L8 15L9 15L9 14L11 14L11 15L13 15L13 16L10 16L10 17L12 17L12 18L9 18L9 19L10 19L10 20L11 20L11 21L12 21L12 22L14 22L14 23L16 23L16 22L15 22L15 21L12 21L12 19L13 19L13 20L14 20L14 19L13 19L13 16L14 16L14 18L15 18L15 19L16 19L16 17L15 17L15 14L16 14L16 16L21 16L21 17L22 17L22 16L21 16L21 13L18 13L18 12L16 12L16 11L17 11L17 9L15 9L15 7L16 7L16 6L15 6L15 5L14 5L14 4L13 4L13 3ZM16 3L16 4L17 4L17 3ZM10 6L10 7L11 7L11 6ZM12 6L12 7L13 7L13 6ZM14 6L14 7L15 7L15 6ZM12 8L12 9L9 9L9 10L8 10L8 11L7 11L7 10L6 10L6 11L7 11L7 12L8 12L8 11L9 11L9 13L10 13L10 12L13 12L13 13L14 13L14 14L15 14L15 13L14 13L14 12L13 12L13 11L10 11L10 10L12 10L12 9L14 9L14 10L15 10L15 11L16 11L16 10L15 10L15 9L14 9L14 8ZM19 8L19 9L20 9L20 8ZM21 8L21 9L22 9L22 8ZM4 10L4 12L5 12L5 10ZM20 10L20 11L22 11L22 10ZM11 13L11 14L12 14L12 13ZM17 14L17 15L18 15L18 14ZM19 14L19 15L20 15L20 14ZM5 15L5 16L7 16L7 15ZM8 16L8 17L9 17L9 16ZM17 17L17 20L20 20L20 17ZM18 18L18 19L19 19L19 18ZM17 21L17 22L18 22L18 23L22 23L22 21L21 21L21 22L18 22L18 21ZM0 0L0 7L7 7L7 0ZM1 1L1 6L6 6L6 1ZM2 2L2 5L5 5L5 2ZM18 0L18 7L25 7L25 0ZM19 1L19 6L24 6L24 1ZM20 2L20 5L23 5L23 2ZM0 18L0 25L7 25L7 18ZM1 19L1 24L6 24L6 19ZM2 20L2 23L5 23L5 20Z" fill="#000000"/></g></g></svg>
